# xmcd
#
# Track frame offsets:
#	150
#	1432
#	23191
#	29234
#	40408
#	44575
#	48949
#	56171
#	63601
#	73388
#	75546
#	89342
#	112545
#	117482
#	161662
#	241309
#	271934
#	273955
#
# Disc length: 3665 seconds
# Revision: 1
# Processed by: cddbd v1.5.2PL0 Copyright (c) Steve Scherf et al.
# Submitted via: dBpowerAMP V12.0
#
DISCID=010e4f12
DTITLE=Hale Dwoskin - The Inner Circle Retreat 03 CD 06
DYEAR=2007
DGENRE=Speech
TTITLE0=Intro Music
TTITLE1=Partnership Release Demonstration on Problems - Instructions
TTITLE2=Question on the Process
TTITLE3=What about the Things That Need to Be Changed
TTITLE4=Sharing
TTITLE5=Sharing
TTITLE6=Sharing
TTITLE7=Sharing
TTITLE8=Sharing
TTITLE9=Sharing
TTITLE10=About Wanting Oneness
TTITLE11=Increasing Awareness - Bliss Experiences
TTITLE12=Sharing - Experienced the Real Self
TTITLE13=Efforting to Be - The Waves and the Ocean
TTITLE14=Release on the Memory that Bears Your Name pt 1
TTITLE15=Release on the Memory that Bears Your Name pt 2
TTITLE16=Summary of Release
TTITLE17=Concluding Music
EXTD=
EXTT0=
EXTT1=
EXTT2=
EXTT3=
EXTT4=
EXTT5=
EXTT6=
EXTT7=
EXTT8=
EXTT9=
EXTT10=
EXTT11=
EXTT12=
EXTT13=
EXTT14=
EXTT15=
EXTT16=
EXTT17=
PLAYORDER=
